<?xml version="1.0" encoding="utf-8"?>

<svg width="800px" height="800px" viewBox="0 0 64 64" xmlns="http://www.w3.org/2000/svg">

<title>donations</title>

<g id="donations">

<circle cx="35.5" cy="33.5" r="21.5" style="fill:#e5efef"/>

<circle cx="59" cy="42" r="1" style="fill:#4c241d"/>

<circle cx="45" cy="38" r="1" style="fill:#4c241d"/>

<circle cx="12" cy="40" r="1" style="fill:#4c241d"/>

<path d="M9.956,31.338l.159.018c5.748.638,8.806-3.173,13.841-6.018L40.41,19.853a2.261,2.261,0,0,0,1.546-2.144h0a2.26,2.26,0,0,0-2.368-2.258l-18.632.887Z" style="fill:#b5a19c;stroke:#4c241d;stroke-linecap:round;stroke-linejoin:round;stroke-width:2px"/>

<circle cx="26" cy="30" r="11" style="fill:#ffce56;stroke:#4c241d;stroke-linecap:round;stroke-linejoin:round;stroke-width:2px"/>

<circle cx="26" cy="30" r="7" style="fill:none;stroke:#fc8c29;stroke-linecap:round;stroke-linejoin:round;stroke-width:2px"/>

<path d="M51.956,3.97S47.411,8.384,46.3,8.908A11.227,11.227,0,0,1,41.531,9.97H24.878a9.827,9.827,0,0,0-7.412,3.375L5.715,26.845A2.908,2.908,0,0,0,6.065,31a3.008,3.008,0,0,0,4.073-.378L21.082,18.871a9.39,9.39,0,0,1,6.871-2.991h5.436a2.6,2.6,0,0,1,2.6,2.6h0a2.6,2.6,0,0,1-2.6,2.6H27.563a6.632,6.632,0,0,0-2.637.513C20.593,23.465,22.211,28,25.335,28H44.644a12.535,12.535,0,0,0,8.864-3.672l3.741-5.741,4.707-2.707" style="fill:#e7d1c4;stroke:#4c241d;stroke-linecap:round;stroke-linejoin:round;stroke-width:2px"/>

<polyline points="6 61 16 45 49 45 59 61" style="fill:#bf7e68;stroke:#4c241d;stroke-linecap:round;stroke-linejoin:round;stroke-width:2px"/>

<rect x="22" y="51" width="21" height="3" rx="1.5" ry="1.5" style="fill:#6b4f5b;stroke:#4c241d;stroke-linecap:round;stroke-linejoin:round;stroke-width:2px"/>

<line x1="55" y1="30" x2="55" y2="34" style="fill:none;stroke:#4c241d;stroke-linecap:round;stroke-linejoin:round;stroke-width:2px"/>

<line x1="53" y1="32" x2="57" y2="32" style="fill:none;stroke:#4c241d;stroke-linecap:round;stroke-linejoin:round;stroke-width:2px"/>

<line x1="10" y1="9" x2="10" y2="13" style="fill:none;stroke:#4c241d;stroke-linecap:round;stroke-linejoin:round;stroke-width:2px"/>

<line x1="8" y1="11" x2="12" y2="11" style="fill:none;stroke:#4c241d;stroke-linecap:round;stroke-linejoin:round;stroke-width:2px"/>

</g>

</svg>